<svg width="80" height="80" viewBox="0 0 80 80" xmlns="http://www.w3.org/2000/svg" xmlns:xlink="http://www.w3.org/1999/xlink">
    <defs>
        <linearGradient x1="100%" y1="58.563%" x2="0%" y2="58.563%" id="6qxkhbt1ac">
            <stop stop-color="#FFDF00" offset="0%"/>
            <stop stop-color="#FFDF00" offset="100%"/>
        </linearGradient>
        <path d="M10.23 0a5.86 5.86 0 0 1 3.594 1.234c.852.654 1.525 1.432 2.375 2.64.699.992 1.36 2.065 2.02 3.26l.091.166.142-.195c.433-.593.863-1.154 1.296-1.688l.434-.525.438-.51c.574-.65.94-1.01 1.433-1.352a3.836 3.836 0 0 1 2.176-.697c.821 0 1.602.379 2.204 1.014a3.8 3.8 0 0 1 .985 2.085 4 4 0 0 1-.216 1.992 3.683 3.683 0 0 1-.165.369l-.097.177-.128.196h6.167c1.326 0 2.432.988 2.618 2.265l.021.193.007.188v4.667a2.654 2.654 0 0 1-2.458 2.64l-.188.006h-.873l.008.033.011.154V31.73a2.654 2.654 0 0 1-2.458 2.64l-.188.006H6.146a2.654 2.654 0 0 1-2.64-2.458L3.5 31.73V18.317l.001-.066.007-.066.012-.06h-.874a2.655 2.655 0 0 1-2.618-2.264l-.021-.194L0 15.48v-4.666a2.654 2.654 0 0 1 2.458-2.64l.188-.006h4.537l-.08-.086-.204-.24-.186-.25-.17-.263c-.45-.75-.71-1.57-.71-2.349 0-1.322.364-2.435 1.13-3.343C7.804.636 9.024 0 10.23 0zm20.12 18.125h-9.915l.013.055.01.133v14.27h9.021c.44 0 .786-.305.845-.725l.01-.129V18.317c-.001-.046.001-.091.006-.135l.01-.057zm-15.161 0h-9.92l.013.056.01.131V31.73c0 .44.305.786.725.845l.129.01 9.02-.002v-14.27c0-.044.004-.088.01-.132l.013-.055zm3.5 0h-1.754l.013.055.01.133v14.27h1.708v-14.27c0-.045.004-.09.01-.133l.013-.055zm14.29-8.167H2.646a.836.836 0 0 0-.845.725l-.01.13v4.666c0 .44.306.786.726.845l.129.01h30.333c.44 0 .786-.306.845-.726l.01-.129v-4.666a.839.839 0 0 0-.855-.855zm-8.75-5.833-.19.012c-.328.04-.685.17-.969.366a4.9 4.9 0 0 0-.785.707l-.323.357c-.257.292-.51.599-.78.947l-.422.556-.612.842-.183.256h2.52l.483.002c.288-.004.516-.019.726-.05l.154-.026a2.451 2.451 0 0 0 1.044-.454c.285-.22.513-.526.64-.858.13-.335.17-.722.115-1.098-.063-.428-.247-.827-.513-1.105-.283-.3-.584-.454-.905-.454zm-14-2.338c-.675 0-1.377.382-1.898 1.002-.454.538-.706 1.356-.706 2.19 0 .465.154.932.451 1.425.264.44.646.822 1.097 1.102.442.27.969.457 1.543.553.246.041.496.068.79.085l.48.018.576.005h4.144l-.198-.366c-.57-1.04-1.057-1.853-1.574-2.61l-.196-.282c-.74-1.05-1.335-1.738-2.005-2.254a4.28 4.28 0 0 0-1.923-.822l-.292-.034-.289-.012z" id="pg4gv9ys0a"/>
    </defs>
    <g transform="translate(22.188 23.438)" fill="none" fill-rule="evenodd">
        <mask id="hnbk8pps2b" fill="#fff">
            <use xlink:href="#pg4gv9ys0a"/>
        </mask>
        <use fill="#FFDF00" fill-rule="nonzero" xlink:href="#pg4gv9ys0a"/>
        <g mask="url(#hnbk8pps2b)" fill="url(#6qxkhbt1ac)">
            <path d="M-22.188-23.438h80v80h-80z"/>
        </g>
    </g>
</svg>
