<svg width="20" height="20" viewBox="0 0 20 20" xmlns="http://www.w3.org/2000/svg" xmlns:xlink="http://www.w3.org/1999/xlink">
    <defs>
        <path d="M12.153 6.579c.433-.186.568-.804.566-1.358 0-.438-.076-.796-.074-.796a.169.169 0 0 1 .127-.195.166.166 0 0 1 .2.128c0 .01.08.388.08.863-.001.584-.11 1.456-.76 1.767-.5.231-.81.259-1.02.31-.167.042-.29.089-.5.298-.312.447-.686.89-1.14 1.342.071-.005.145-.007.223-.014.99-.069 1.524-.202 1.804-.365.277-.167.342-.344.446-.633a.158.158 0 0 1 .208-.107.169.169 0 0 1 .108.211c-.094.293-.305.654-.677.868-.367.211-.856.425-1.868.494-.418.024-.69.095-.889.16-.009 0-.014.004-.023.007-.181.154-.377.312-.577.471.665-.203 1.57-.379 2.413-.224 0 0-.367 1.11-.97 1.3-.603.187-.852.176-1.028.201-.176.025-.736.046-.64.709.097.661.105 1.145-.117 1.524-.224.38-.451.628-.497.947-.047.319-.062.472-.062.686 0 .259-.172.827-.776.827-.603 0-.78-.568-.78-.827 0-.214-.012-.367-.06-.686-.047-.32-.27-.566-.497-.947-.225-.38-.211-.863-.12-1.524.096-.663-.458-.684-.636-.709-.178-.025-.425-.014-1.032-.201-.605-.19-.966-1.3-.966-1.3.843-.155 1.745.021 2.412.224a19.133 19.133 0 0 1-.575-.47c-.01-.004-.019-.008-.03-.008a3.279 3.279 0 0 0-.885-.16c-1.014-.07-1.5-.283-1.868-.494-.372-.214-.58-.575-.677-.868a.17.17 0 0 1 .108-.211.163.163 0 0 1 .211.107c.099.29.166.466.443.633.282.163.813.296 1.802.365.08.007.152.01.224.014A10.086 10.086 0 0 1 2.647 7.6c-.212-.21-.333-.26-.505-.302-.208-.051-.516-.079-1.017-.31-.649-.31-.757-1.183-.76-1.767 0-.475.08-.854.08-.863a.166.166 0 0 1 .197-.128c.091.017.15.105.132.195.002 0-.076.358-.076.796 0 .554.132 1.172.568 1.358.374.172.649.17.87.194a7.652 7.652 0 0 1-.826-2.517c-.143-.603-.455-.94-.804-1.397C.095 2.302.008 1.09 0 1.076-.01.983.06.906.151.891c.092-.007.177.063.182.152 0 .001.028.301.1.656.068.354.19.769.341.957.153.203.314.399.462.62.053-1.92.986-3.193.996-3.209a.165.165 0 0 1 .235-.031c.074.052.09.158.037.23 0 0-.056.075-.143.225-.09.146-.206.367-.326.645a6.029 6.029 0 0 0-.47 2.302c0 .047 0 .095.006.142.212-.486.587-1.001 1.069-1.25.462-.227.765-.816.852-1.072l.037-.129a.17.17 0 0 1 .199-.125.172.172 0 0 1 .129.206c-.013.01-.202.92-.991 1.332-.653.317-1.231 1.345-1 2.45a.78.78 0 0 0 .014.162h-.002C2.3 6.339 3.183 7.65 4.746 9.009a3.446 3.446 0 0 1-.081-.746c0-.19.015-.31.015-.316a.172.172 0 0 1 .19-.144c.09.016.156.098.142.188 0 0-.013.1-.013.272 0 .354.216.947.66 1.476.233.18.48.353.738.533.104-.027.21-.044.313-.044.1 0 .208.017.307.044.263-.18.508-.353.743-.533.444-.529.66-1.122.66-1.476 0-.173-.017-.272-.017-.272a.173.173 0 0 1 .143-.188c.09-.01.175.053.19.144 0 .005.016.125.016.316 0 .19-.015.455-.08.746 1.563-1.358 2.444-2.67 2.865-3.852v-.003a.774.774 0 0 0 .016-.163c.228-1.104-.347-2.132-1-2.45-.79-.41-.982-1.32-.99-1.33a.17.17 0 0 1 .122-.207c.092-.02.18.033.2.125l.042.129c.087.256.39.845.848 1.072.484.249.858.764 1.074 1.25.002-.047.002-.095.002-.142A5.925 5.925 0 0 0 11.056.49c-.087-.15-.141-.224-.141-.224a.166.166 0 0 1 .035-.231.167.167 0 0 1 .236.031c.007.016.942 1.29.995 3.208.146-.22.307-.416.464-.619.148-.188.271-.603.34-.957.07-.355.099-.655.099-.655.009-.09.09-.16.183-.153a.173.173 0 0 1 .149.185h.003c-.009.012-.099 1.226-.511 1.783-.348.457-.658.794-.803 1.393a7.516 7.516 0 0 1-.824 2.52c.221-.022.494-.02.872-.193" id="j01gspb6ga"/>
    </defs>
    <g transform="translate(3.2 2)" fill="none" fill-rule="evenodd">
        <mask id="vtbx6p511b" fill="#fff">
            <use xlink:href="#j01gspb6ga"/>
        </mask>
        <use fill="#0E3051" xlink:href="#j01gspb6ga"/>
        <g mask="url(#vtbx6p511b)" fill="#0E3051">
            <path d="M-3.2-2h20v20h-20z"/>
        </g>
    </g>
</svg>
