<svg width="50" height="50" viewBox="0 0 50 50" xmlns="http://www.w3.org/2000/svg" xmlns:xlink="http://www.w3.org/1999/xlink">
    <defs>
        <path d="M29.877 17.188c1.621 0 2.936 1.27 2.936 2.838s-1.315 2.839-2.936 2.839a2.982 2.982 0 0 1-1.943-.711l-4.938 2.969A2.76 2.76 0 0 1 23 26.268l4.468 2.685a2.961 2.961 0 0 1 2.41-1.217c1.62 0 2.934 1.271 2.934 2.839s-1.314 2.838-2.935 2.838c-1.62 0-2.935-1.27-2.935-2.838 0-.217.025-.428.073-.631l-4.446-2.671a2.96 2.96 0 0 1-2.446 1.269c-1.621 0-2.936-1.271-2.936-2.839 0-1.567 1.315-2.838 2.936-2.838 1.015 0 1.91.499 2.438 1.257l4.693-2.821a2.751 2.751 0 0 1-.312-1.275c0-1.568 1.314-2.838 2.935-2.838zm0 11.63c-1.031 0-1.853.795-1.853 1.757 0 .962.822 1.757 1.853 1.757 1.032 0 1.854-.795 1.854-1.757 0-.962-.822-1.757-1.854-1.757zm-9.754-4.872c-1.032 0-1.854.795-1.854 1.757 0 .962.822 1.757 1.854 1.757 1.031 0 1.853-.795 1.853-1.757 0-.962-.822-1.757-1.853-1.757zm9.754-5.677c-1.031 0-1.853.795-1.853 1.757 0 .962.822 1.757 1.853 1.757 1.032 0 1.854-.795 1.854-1.757 0-.962-.822-1.757-1.854-1.757z" id="u02d97ehua"/>
    </defs>
    <g fill="none" fill-rule="evenodd">
        <mask id="nxwu0go4kb" fill="#fff">
            <use xlink:href="#u02d97ehua"/>
        </mask>
        <use fill="#000" fill-rule="nonzero" xlink:href="#u02d97ehua"/>
        <g mask="url(#nxwu0go4kb)" fill="#000">
            <path d="M0 0h50v50H0z"/>
        </g>
    </g>
</svg>
