<svg width="42" height="51" viewBox="0 0 42 51" xmlns="http://www.w3.org/2000/svg" xmlns:xlink="http://www.w3.org/1999/xlink">
    <defs>
        <path d="M234.977 38.558c1.356-.578 1.775-2.513 1.77-4.244 0-1.366-.238-2.484-.232-2.484a.528.528 0 0 1 .397-.613.52.52 0 0 1 .628.403c0 .027.248 1.212.248 2.694-.005 1.825-.342 4.553-2.375 5.523-1.566.722-2.53.81-3.185.97-.525.132-.91.276-1.565.931-.976 1.395-2.144 2.784-3.561 4.194.22-.016.452-.022.694-.044 3.097-.215 4.763-.633 5.638-1.14.866-.524 1.07-1.075 1.394-1.98a.495.495 0 0 1 .651-.335c.27.088.424.38.336.661-.292.915-.953 2.045-2.117 2.712-1.146.66-2.672 1.328-5.836 1.543-1.305.077-2.155.298-2.777.5-.028 0-.044.012-.072.023-.567.48-1.18.976-1.803 1.472 2.078-.634 4.906-1.184 7.54-.7 0 0-1.146 3.467-3.031 4.061-1.884.585-2.662.552-3.213.63-.55.076-2.299.142-2 2.215.302 2.067.33 3.577-.364 4.761-.7 1.191-1.41 1.962-1.554 2.96-.149.998-.194 1.477-.194 2.144 0 .81-.54 2.585-2.425 2.585-1.884 0-2.44-1.775-2.44-2.585 0-.667-.034-1.146-.188-2.144-.144-.998-.844-1.769-1.549-2.96-.706-1.184-.661-2.694-.375-4.761.298-2.073-1.433-2.139-1.99-2.215-.556-.078-1.328-.045-3.224-.63-1.89-.594-3.02-4.06-3.02-4.06 2.635-.485 5.456.065 7.54.699a59.79 59.79 0 0 1-1.797-1.472c-.033-.011-.06-.022-.093-.022-.607-.203-1.455-.424-2.767-.5-3.17-.216-4.69-.883-5.837-1.544-1.163-.667-1.813-1.797-2.117-2.712a.533.533 0 0 1 .337-.66c.27-.1.567.043.662.335.308.904.517 1.455 1.383 1.979.882.507 2.54.925 5.632 1.14.248.022.474.028.7.044-1.41-1.41-2.585-2.799-3.555-4.182-.661-.656-1.041-.811-1.577-.943-.65-.16-1.613-.248-3.18-.97-2.027-.97-2.363-3.698-2.374-5.523 0-1.482.248-2.667.248-2.694a.52.52 0 0 1 .617-.403c.286.055.468.33.414.613.005 0-.237 1.118-.237 2.484 0 1.731.413 3.666 1.775 4.244 1.168.54 2.027.535 2.717.607-1.467-2.745-2.21-5.39-2.58-7.865-.447-1.885-1.423-2.938-2.513-4.365-1.284-1.742-1.554-5.533-1.577-5.572-.038-.292.182-.534.47-.579.285-.022.55.199.567.474 0 .006.087.943.314 2.05.21 1.108.595 2.404 1.064 2.993.478.634.981 1.246 1.443 1.934.165-5.996 3.081-9.974 3.114-10.024a.515.515 0 0 1 .733-.1.52.52 0 0 1 .117.722s-.177.232-.447.7a16.263 16.263 0 0 0-1.02 2.017c-.722 1.742-1.466 4.228-1.466 7.192 0 .15 0 .299.017.447.66-1.52 1.834-3.13 3.339-3.907 1.445-.711 2.392-2.552 2.662-3.352.078-.264.116-.401.116-.401a.53.53 0 0 1 .623-.392.537.537 0 0 1 .403.645c-.04.033-.63 2.876-3.097 4.161-2.04.992-3.848 4.205-3.126 7.655 0 .182.011.358.044.507h-.005c1.317 3.704 4.078 7.804 8.96 12.048a10.77 10.77 0 0 1-.252-2.331c0-.596.049-.97.049-.987a.536.536 0 0 1 .595-.452c.282.05.485.309.441.59 0 0-.039.308-.039.849 0 1.107.673 2.96 2.062 4.612.728.563 1.5 1.103 2.304 1.665.325-.082.655-.137.98-.137.31 0 .651.055.96.137a52.573 52.573 0 0 0 2.32-1.665c1.388-1.653 2.061-3.505 2.061-4.612 0-.54-.05-.85-.05-.85a.54.54 0 0 1 .447-.589.546.546 0 0 1 .595.452c0 .016.05.391.05.987a10.8 10.8 0 0 1-.253 2.33c4.887-4.243 7.638-8.343 8.955-12.036v-.01c.033-.15.05-.326.05-.508.71-3.45-1.086-6.663-3.125-7.655-2.47-1.285-3.07-4.128-3.097-4.161a.534.534 0 0 1 .385-.645.511.511 0 0 1 .622.392l.133.401c.27.8 1.218 2.64 2.65 3.352 1.512.777 2.68 2.386 3.357 3.907.006-.148.006-.298.006-.447 0-2.964-.738-5.45-1.476-7.192-.365-.87-.734-1.559-1.01-2.017-.27-.468-.44-.7-.44-.7a.518.518 0 0 1 .11-.722.52.52 0 0 1 .739.1c.021.05 2.942 4.028 3.108 10.024.457-.688.959-1.3 1.449-1.934.463-.59.849-1.885 1.064-2.993.22-1.107.308-2.044.308-2.044a.539.539 0 0 1 .573-.48c.276.045.491.287.464.579h.01c-.027.039-.309 3.83-1.598 5.572-1.085 1.427-2.055 2.48-2.508 4.354a23.489 23.489 0 0 1-2.573 7.876c.689-.072 1.542-.067 2.722-.607" id="lb16mrcoja"/>
    </defs>
    <use fill="#FFF" xlink:href="#lb16mrcoja" transform="translate(-197 -17.162)" fill-rule="evenodd"/>
</svg>
